<svg width="240" height="60" viewBox="0 0 240 60" fill="none" xmlns="http://www.w3.org/2000/svg">
<path fill-rule="evenodd" clip-rule="evenodd" d="M30.2036 41.5475C29.9856 45.378 26.6452 46.6535 25.4579 46.6535H12.8388V35.6275H25.2452C25.8885 35.6275 30.2036 36.6742 30.2036 41.5475ZM44.5487 42.825C44.5487 30.9848 36.1348 29.2459 36.1348 29.2459C36.1348 29.2459 42.1758 26.1133 42.1758 18.2217C42.1758 5.33858 31.9278 1.51004 27.829 1.51004H0V58.3755H29.7712C35.2735 58.3755 44.5487 52.341 44.5487 42.825ZM28.3694 18.685C28.3694 22.281 25.2434 24.1399 24.0561 24.1399H12.837V13.3465H23.0833C24.2706 13.3465 28.3694 14.6239 28.3694 18.685ZM84.7823 29.9418C84.7823 38.1842 80.4672 46.1902 73.1325 46.1902C65.6898 46.1902 61.3747 38.1823 61.3747 29.9418C61.3747 22.0503 65.6898 14.1587 73.1325 14.3913C80.469 14.3913 84.7823 22.281 84.7823 29.9418ZM97.8355 29.9418C97.8355 14.1587 87.9118 0.814103 73.1343 0.814103C58.1406 0.814103 48.1088 14.1606 48.1088 29.9418C48.325 46.1902 58.1389 60 73.1343 60C87.91 60 98.0482 46.1902 97.8355 29.9418ZM143.136 41.315C143.136 18.2198 114.013 27.9685 115.739 17.175C116.388 13.1139 120.27 12.5324 123.614 12.5324C129.327 12.5324 133.322 17.4076 133.322 17.4076L141.195 8.4712C135.264 2.55299 130.949 0 122.643 0C111.964 0 102.147 7.19377 102.147 18.9158C102.147 35.3967 119.083 35.3967 125.018 37.3682C128.576 38.4131 129.547 39.4579 129.329 42.0109C129.329 44.7983 125.232 47.4658 122.427 47.4658C116.388 47.9291 112.827 44.5639 108.622 40.0375L100.533 49.4391C107.867 57.0981 114.339 60 122.429 59.7674C132.889 59.4204 143.136 53.0351 143.136 41.315ZM192.648 46.4247L181.969 39.2271C181.969 39.2271 177.654 46.1902 172.691 46.1902C164.817 46.4247 160.504 37.9497 160.504 29.7111C160.504 21.5869 164.495 14.3913 171.939 14.3913C176.254 14.3913 179.274 17.1769 181.214 21.0073L191.461 13.8135C189.735 11.0298 185.744 1.0467 172.691 0.583375C158.562 0.236348 147.343 14.3932 147.343 29.713C147.343 46.1921 156.403 59.1896 173.123 59.1896C181.645 59.4204 188.333 53.6185 192.648 46.4247ZM240 58.3755V1.50816H226.731V22.8606H210.553V1.50816H196.963V58.3737H210.229V35.6275H226.731V58.3755H240Z" fill="#E2E2E2"/>
</svg>
