<svg width="180" height="60" viewBox="0 0 180 60" fill="none" xmlns="http://www.w3.org/2000/svg">
<g clip-path="url(#clip0_87_1720)">
<path d="M107.185 23.5656L102.446 40.9485L96.022 23.5656H84.7889L78.4431 46.1227L75.2313 23.3389H65.1822C65.1822 23.3389 63.7115 23.3522 62.4702 24.219C61.8099 24.7112 61.1894 25.3337 60.6226 26.0727L51.2248 39.5549C45.4116 47.0028 35.2395 51.2969 32.3964 51.5036C18.861 52.5037 16.0384 37.4612 16.9765 30.3534C19.3936 11.9836 36.9069 7.62959 46.0998 7.62959C50.4587 7.62959 54.0351 9.02982 56.8004 10.2767L59.4591 2.56208L57.505 1.88863C55.0798 1.39521 51.2985 0.0616593 44.8463 0.0283204C18.7504 -0.111703 5.35425 11.8103 1.27396 27.0995C-3.33071 44.3557 4.44479 59.9716 26.3088 59.9716C30.2744 59.9716 38.1195 59.4115 45.4935 55.0842H52.6095L56.2596 49.8166H67.2797L67.7426 55.4509H79.7541L79.7377 55.3175H86.1572L91.278 37.0945L97.9925 55.3042L108.41 55.3109L117.345 23.5656H107.185ZM60.4423 43.4489L66.3047 34.3674L66.8618 43.2288L60.4423 43.4489ZM136.469 23.5656H120.045L111.106 55.3109H127.534C140.676 55.4842 146.018 47.2562 147.788 40.9485C149.762 33.9673 148.066 23.5656 136.469 23.5656ZM138.169 38.9081C136.911 46.8628 129.693 47.3829 127.235 47.3829H124.322L128.64 31.5136H131.553C134.211 31.5069 139.205 32.3204 138.169 38.9081Z" fill="#E2E2E2"/>
<path d="M168.673 23.3389L160.467 36.6277L157.702 23.5656H147.657L154.216 47.7629L147.702 58.2647H156.309C156.309 58.2647 157.984 57.9313 158.681 57.5312C159.377 57.1245 160.365 55.4909 160.365 55.4909L180 23.3722L168.673 23.3389Z" fill="#E2E2E2"/>
</g>
<defs>
<clipPath id="clip0_87_1720">
<rect width="180" height="60" fill="white"/>
</clipPath>
</defs>
</svg>
