<svg width="380" height="60" viewBox="0 0 380 60" fill="none" xmlns="http://www.w3.org/2000/svg">
<g clip-path="url(#clip0_179_58)">
<path d="M0 2.72375H46.521V58.869H0V2.72375Z" fill="#E2E2E2"/>
<path d="M27.0699 5.9888C25.8143 5.68883 24.5388 5.53544 23.2601 5.53064C12.4718 5.53064 3.66757 15.9596 2.97461 29.1358C4.20954 29.4246 5.48021 29.5912 6.78443 29.5912C17.5735 29.5921 26.3763 19.1658 27.0699 5.9888V5.9888ZM6.78516 32.8011C5.49334 32.8011 4.23288 32.9686 3.0067 33.252C4.00457 46.0533 12.6885 56.0603 23.2609 56.0603C24.5527 56.0603 25.8124 55.8937 27.0371 55.6094C26.0415 42.809 17.3568 32.8011 6.78516 32.8011V32.8011ZM43.6135 30.7964C43.6135 19.4991 37.638 9.93838 29.399 6.70682V54.8859C37.638 51.6526 43.6135 42.0928 43.6135 30.7964Z" fill="white"/>
<path d="M298.045 51.3447C298.045 56.7539 302.824 57.9762 302.824 57.9762V58.8482H284.407V57.9762C284.407 57.9762 289.186 56.753 289.186 51.3447V10.6872C289.186 10.6872 288.624 5.6266 284.547 4.23039V2.83509C284.547 2.83509 294.53 1.78929 298.045 0.0435791V51.3447H298.045ZM120.814 51.3447C120.814 56.7539 125.594 57.9762 125.594 57.9762V58.8482H107.18V57.9762C107.18 57.9762 111.959 56.753 111.959 51.3447V10.6872C111.959 10.6872 111.396 5.6266 107.319 4.23039V2.83509C107.319 2.83509 117.301 1.78929 120.814 0.0435791V51.3447H120.814ZM102.643 47.3335C102.643 47.3335 100.395 53.6165 93.225 53.6165C86.0554 53.6165 83.2442 52.3932 83.2442 47.6812V32.849H93.6466C93.6466 32.849 97.0217 31.8023 98.8475 37.0367H99.9715V23.426H98.8475C97.0217 28.6586 93.6466 27.6137 93.6466 27.6137H83.2442V8.59195H96.177C96.177 8.59195 100.113 8.59195 101.098 12.9553H102.783V3.53319L68.4849 3.35935V4.23039C68.4849 4.23039 73.2634 5.45366 73.2634 10.8637V51.3447C73.2634 56.7539 68.4849 57.9762 68.4849 57.9762V58.8482H103.628V47.3335H102.643ZM234.116 27.9759L234.081 20.4606L220.868 22.3784V23.9493C225.225 23.9493 225.365 29.0099 225.365 29.0099V51.3447C225.365 56.7539 220.588 57.9762 220.588 57.9762V58.8482H239V57.9762C239 57.9762 234.222 56.753 234.222 51.3447L234.155 36.5994C236.407 29.086 243.921 30.2332 243.921 30.2332L246.733 19.9364C238.917 17.9715 235.469 24.3713 234.116 27.9759V27.9759ZM136.663 38.26H158.452C158.452 38.26 160.279 19.7616 143.692 19.7616C126.119 19.7616 126.683 39.4815 126.683 39.4815C126.683 39.4815 124.713 59.7219 143.129 59.8958C143.129 59.8958 151.705 60.9416 157.187 53.2661V48.3802C157.187 48.3802 152.828 53.7885 144.674 52.3941C144.674 52.3932 135.538 51.3447 136.663 38.26V38.26ZM172.368 38.26C171.244 51.3447 180.381 52.3932 180.381 52.3932C188.534 53.7876 193.175 47.6812 193.175 47.6812V52.5671C187.131 61.1181 178.834 59.8958 178.834 59.8958C160.42 59.7228 162.386 39.4815 162.386 39.4815C162.386 39.4815 161.824 19.7616 179.397 19.7616C179.397 19.7616 188.255 20.6345 191.488 21.6803V33.0229H190.644C190.644 33.0229 188.946 23.8769 179.819 24.4727C171.806 24.9969 172.368 38.26 172.368 38.26V38.26Z" fill="#E2E2E2"/>
<path d="M136.803 33.5489H149.315C149.315 33.5489 149.876 23.6007 142.988 23.6007C137.226 23.6007 136.803 33.5489 136.803 33.5489V33.5489Z" fill="white"/>
<path d="M207.373 47.8551V26.2193H213.979C213.979 26.2193 218.34 26.4828 217.775 20.7223H207.373V9.29004L193.737 26.2193H198.376V46.4598C198.376 60.2453 207.092 59.7228 207.092 59.7228C214.541 60.0687 217.775 55.5342 217.775 55.5342V51.5203C206.952 56.408 207.373 47.8551 207.373 47.8551V47.8551ZM264.869 19.7616C251.231 19.7616 247.295 28.7545 247.295 39.7404C247.295 50.729 249.826 59.7219 264.869 59.7219C279.066 59.7219 282.44 50.7281 282.44 39.7404C282.44 28.7545 279.486 19.7616 264.869 19.7616V19.7616Z" fill="#E2E2E2"/>
<path d="M264.869 24.6475C260.367 24.6475 256.716 31.3668 256.716 39.6571C256.716 47.9447 260.367 54.6614 264.869 54.6614C269.371 54.6614 273.021 47.9447 273.021 39.6571C273.021 31.3668 269.371 24.6475 264.869 24.6475Z" fill="white"/>
<path d="M373.11 49.9494L364.438 36.1558C368.144 30.5592 371.282 25.8707 371.282 25.8707C371.282 25.8707 374.797 22.3793 377.891 22.2055V20.4607H364.537V22.0289C364.537 22.0289 367.206 22.5541 365.238 25.8698C364.739 26.7119 363.334 28.8225 361.515 31.5036L358.632 26.9165C358.632 26.9165 357.085 23.4269 360.881 22.0298V20.4616H340.216V22.2064C340.216 22.2064 344.576 23.7755 346.824 27.2688C347.925 28.9792 351.591 35.1245 355.044 40.9556C350.968 46.8682 347.245 52.2194 347.245 52.2194C347.245 52.2194 343.874 56.9278 340.64 57.1052C337.688 56.2333 337.547 51.5222 337.547 51.5222V19.9364L323.348 22.0298V23.6008C327.846 24.6484 328.129 29.0108 328.129 29.0108V49.0766C326.583 51.17 322.365 52.0456 322.365 52.0456C315.476 51.5213 316.18 44.3664 316.18 44.3664V20.1102L303.106 22.0289V23.5999C307.324 24.6475 307.184 29.8819 307.184 29.8819V46.1103C307.184 59.8976 316.743 59.722 316.743 59.722C324.473 59.722 328.129 55.01 328.129 55.01C328.832 59.0239 330.378 58.6753 330.378 58.6753H354.556L354.274 57.1034C354.274 57.1034 351.885 56.581 352.587 54.6614C352.828 54.0031 355.11 50.3994 358.002 45.9528C360.29 49.8254 362.005 52.7437 362.005 52.7437C362.005 52.7437 363.973 55.5343 360.178 56.408V58.6762H380.001V56.5819C380 56.581 377.186 56.9287 373.11 49.9494V49.9494Z" fill="#E2E2E2"/>
</g>
<defs>
<clipPath id="clip0_179_58">
<rect width="380" height="60" fill="white"/>
</clipPath>
</defs>
</svg>
