<svg width="230" height="60" viewBox="0 0 230 60" fill="none" xmlns="http://www.w3.org/2000/svg">
<path fill-rule="evenodd" clip-rule="evenodd" d="M182.438 0H190.85V7.84331H182.44V0H182.438V0ZM178.667 58.75V52.218C182.237 52.218 182.438 50.9692 182.438 47.8653V12.0698H191.217V49.9149C191.217 51.4185 191.049 52.8583 190.749 54.1709C190.048 57.0518 186.177 58.6203 183.474 58.717C182.871 58.75 178.734 58.6851 178.667 58.75V58.75ZM165.25 25.7729C165.25 22.3153 162.879 18.5369 158.808 18.5369C153.434 18.5369 151.532 22.4745 151.532 27.2777V45.6554L142.655 45.5905V12.7102H151.032V16.6159C154.201 12.4861 156.005 11.4931 161.912 11.4931C164.683 11.4931 167.086 12.3894 169.555 13.8293C173.928 16.36 173.626 21.9933 173.626 26.2517V45.5917H165.25V25.7729ZM126.933 25.6774C126.801 23.7245 126.2 22.0912 125.199 20.8117C124.199 19.5322 122.496 18.7633 120.058 18.5381C117.722 18.7622 116.053 19.531 115.051 20.8436C114.017 22.1243 113.383 23.7575 113.116 25.6786H126.933V25.6774V25.6774ZM220.854 25.6774C220.72 23.7245 220.118 22.0912 219.118 20.8117C218.117 19.5322 216.414 18.7633 213.979 18.5381C211.674 18.7622 210.006 19.531 208.973 20.8436C207.938 22.1243 207.302 23.7575 207.036 25.6786H220.854V25.6774V25.6774ZM135.613 36.0514C132.276 46.041 126.667 46.6165 119.76 46.6483C114.62 46.6483 109.98 44.5339 107.477 41.3003C104.974 38.0691 103.705 34.0337 103.606 29.2624V29.0065V28.7187C103.606 25.9003 104.073 23.1797 105.04 20.5546C105.975 17.9614 107.677 15.7527 110.081 13.992C111.249 13.0958 112.517 12.4873 113.952 12.071C115.364 11.6893 116.824 11.4956 118.29 11.4955H120.828C121.695 11.4955 122.53 11.5592 123.363 11.6877C124.229 11.8163 125.031 11.9767 125.867 12.1689C128.136 12.7444 130.139 13.9295 131.807 15.722C133.51 17.5145 134.71 19.5004 135.377 21.741C135.612 22.7976 135.813 23.8224 135.913 24.8142C136.012 25.839 136.079 26.8626 136.079 27.8873V29.168C136.079 29.6161 136.046 30.8968 136.012 31.3768H112.916C112.849 36.1174 115.719 39.8946 119.859 40.0208C123.864 40.1175 125.766 38.805 127.134 36.0526H135.613V36.0514V36.0514ZM229.565 36.0514C226.194 46.041 220.587 46.6165 213.677 46.6483C208.538 46.6483 203.866 44.5339 201.361 41.3003C198.859 38.0691 197.589 34.0337 197.491 29.2624V29.0065V28.7187C197.491 25.9003 197.957 23.1797 198.924 20.5546C199.894 17.9614 201.562 15.7527 203.967 13.992C205.168 13.0958 206.469 12.4873 207.871 12.071C209.283 11.6893 210.743 11.4956 212.21 11.4955H214.779C215.615 11.4955 216.448 11.5592 217.317 11.6877C218.15 11.8163 218.985 11.9767 219.785 12.1689C222.055 12.7444 224.06 13.9295 225.759 15.722C227.427 17.5145 228.63 19.5004 229.298 21.741C229.565 22.7976 229.733 23.8224 229.832 24.8142C229.966 25.839 230 26.8626 230 27.8873V29.168C230 29.6161 229.967 30.8968 229.932 31.3768H206.836C206.769 36.1174 209.638 39.8946 213.812 40.0208C217.783 40.1175 219.687 38.805 221.054 36.0526H229.565V36.0514V36.0514ZM81.3432 12.3906H89.8873V17.6737C91.5235 16.0404 93.225 11.2384 101.269 11.5262V20.2351C99.1321 20.2351 95.1268 20.2032 92.6902 22.3165C90.9544 23.8212 90.1208 26.0948 90.0864 29.1999L90.02 45.7827H81.3432V12.3906ZM48.6336 29.2317C48.6336 31.8898 49.2679 34.1929 50.603 36.2106C51.9049 38.2283 54.2088 39.4123 57.512 39.6706C60.7821 39.4123 63.0528 38.2283 64.3202 36.1788C65.6221 34.0985 66.2565 31.8261 66.2565 29.2317V28.8154V28.3355C66.1583 26.2426 65.5155 24.2066 64.3866 22.4132C63.2851 20.5558 61.3157 19.4037 58.4783 18.9237H58.1107C58.0112 18.8919 57.8784 18.86 57.7776 18.827C57.6436 18.827 57.5108 18.827 57.41 18.7952H57.0769C54.1055 19.0192 51.9701 20.1395 50.635 22.1573C49.2999 24.175 48.6336 26.5418 48.6336 29.2317V29.2317ZM40.2567 29.5194C40.2567 24.3012 41.625 20.1384 44.3948 16.9697C47.1657 13.7998 51.037 12.1995 55.9766 12.1995H58.5127C59.1691 12.1626 59.8275 12.1733 60.4822 12.2314C61.1829 12.2962 61.8505 12.3917 62.518 12.5203C66.7568 13.1925 69.8266 15.209 71.764 18.4756C73.699 21.741 74.701 25.2953 74.7674 29.0725V29.5206C74.7342 34.4193 73.4323 38.5173 70.8285 41.7508C68.2247 44.9844 64.1862 46.6177 58.7795 46.6177L56.2433 46.6825C50.8698 46.6177 46.8645 44.9856 44.2288 41.7508C41.5574 38.5161 40.2567 34.4181 40.2567 29.5194V29.5194ZM9.80301 31.6752C10.1068 33.4579 10.7811 35.164 11.786 36.6918C12.7608 38.1776 14.1549 39.0963 16.0113 39.4253C16.5989 39.5314 17.1743 39.568 17.7693 39.5291C19.7903 39.3911 21.3418 38.3203 22.4003 36.8179C23.428 35.3097 24.0452 33.4853 24.2517 31.3709C24.4054 29.7836 24.398 28.089 24.1423 26.5241C23.8776 24.9486 23.3338 23.4282 22.5343 22.0287C21.7155 20.6006 20.4382 19.6855 18.7011 19.2433C17.7348 18.998 16.9444 18.8541 15.9535 19.0582C13.9828 19.4638 12.4744 20.5039 11.4528 22.1561C10.5037 23.6903 9.92963 25.4368 9.7108 27.4121C9.55836 28.8013 9.56328 30.3001 9.80301 31.6752V31.6752ZM25.4368 43.6376C22.013 46.2238 17.4177 46.3346 13.2514 46.0174C9.04449 45.6955 5.84692 43.9537 3.60826 40.8216C1.17166 37.3321 -0.063845 33.4264 0.0025405 29.135C0.0025405 24.7811 1.20486 20.9061 3.64022 17.4496C6.07681 14.0239 9.71449 12.2632 14.5877 12.2632C22.2638 12.2314 22.8318 14.0875 25.0016 17.5782V13.2243H33.3785L33.4965 41.9147C33.5075 44.4136 33.8702 51.4409 31.2086 54.9421C29.8736 56.6721 28.2373 57.9198 26.2027 58.6545C24.191 59.3748 22.0734 59.786 19.928 59.8726C19.6613 59.8726 19.3933 59.9351 19.1265 59.9351H18.3262L15.79 60C15.6228 59.9682 15.4568 59.9351 15.3228 59.9351H14.1549C10.9832 59.9057 8.58102 59.1686 5.94404 57.7582C3.27387 56.3808 1.93878 53.4692 1.83798 49.9774L11.2844 50.0423C11.6852 53.6603 13.7874 54.1402 17.1583 54.1402C24.8455 54.139 25.4368 49.0764 25.4368 43.6376Z" fill="#E2E2E2"/>
</svg>
