<svg width="182" height="182" viewBox="0 0 182 182" fill="none" xmlns="http://www.w3.org/2000/svg">
<path d="M62.5986 4.35016C55.0324 4.35016 48.9407 10.4415 48.9407 18.0081V163.992C48.9407 168.409 51.0185 172.321 54.252 174.815V28.2517H182V18.0081C182 10.4418 175.909 4.35016 168.342 4.35016H62.5986Z" fill="#D2D7D3"/>
<path d="M38.1279 4.35016H143.872C151.438 4.35016 157.53 10.4415 157.53 18.0081V163.992C157.53 171.558 151.438 177.65 143.872 177.65H38.1279C30.5617 177.65 24.47 171.558 24.47 163.992V18.0081C24.4703 10.4418 30.5617 4.35016 38.1279 4.35016Z" fill="#ECF0F1"/>
<path d="M41.5427 4.35016H157.53V159.439H41.5427V4.35016Z" fill="#ECF0F1"/>
<path d="M157.53 4.35016V18.0081C157.53 10.9223 162.872 5.13085 169.765 4.42371C169.298 4.37555 168.823 4.35053 168.343 4.35053H157.53V4.35016ZM48.9407 159.439V163.992C48.9407 168.409 51.0185 172.321 54.252 174.815V159.439H48.9407V159.439Z" fill="#ECF0F1"/>
<path d="M0 153.748V163.992C0 171.558 6.09131 177.65 13.658 177.65H119.402C126.968 177.65 133.06 171.559 133.06 163.992V153.734L0 153.748Z" fill="#D2D7D3"/>
<path d="M133.059 177.649V163.991C133.059 171.077 138.401 176.869 145.295 177.576C144.827 177.624 144.352 177.649 143.872 177.649H133.059V177.649Z" fill="#D2D7D3"/>
<path d="M108.58 160.95H133.059V177.65H108.58V160.95Z" fill="#D2D7D3"/>
<path d="M55.5476 22.0117C55.3812 22.0166 55.2242 22.0887 55.112 22.2119L53.5574 23.9178L50.5267 23.851C50.2731 23.8454 50.0421 23.9967 49.9458 24.2314L49.0677 26.3653L46.197 27.3398C45.957 27.4213 45.7921 27.6416 45.7814 27.8949L45.6866 30.2017L43.3222 32.0979C43.1246 32.2568 43.045 32.5211 43.122 32.7626L43.2065 33.0288L43.0022 33.1926L43.6536 35.2393L42.2487 37.5534C42.1172 37.7702 42.1323 38.0455 42.2874 38.2461L42.309 38.2742L42.0247 38.7432L43.5652 40.7403L43.1057 43.0464C43.0772 43.1874 43.0996 43.3342 43.1686 43.4604L43.0025 44.2942L45.2938 45.7456L45.8213 49.1756L48.4701 49.7557L50.1312 52.7856L50.1919 69.734L58.2807 60.088L66.4984 69.7332V69.734L66.4369 52.6306L67.3996 50.29L70.6859 49.1756L70.7977 46.4657L73.5046 44.2938L73.271 43.5594C73.271 43.559 73.271 43.559 73.271 43.5586C73.4053 43.3978 73.4477 43.1794 73.3844 42.98L72.8767 41.3868L74.4825 38.7428L74.1681 38.336L74.2569 38.1892C74.3884 37.9723 74.3733 37.6971 74.2182 37.4965L72.9681 35.8759L73.5031 33.1922L73.3245 33.0788L73.4007 32.6966C73.4504 32.4479 73.3416 32.1942 73.1273 32.0585L71.1769 30.8232L70.7166 27.8274C70.6779 27.5767 70.4895 27.3758 70.2415 27.3212L67.9866 26.8271L66.5298 24.1699C66.4077 23.947 66.1613 23.8226 65.9095 23.8564L63.622 24.1639L61.3436 22.1645C61.1529 21.9973 60.8791 21.9647 60.6546 22.0822L58.6102 23.153L55.7854 22.0534C55.7088 22.0238 55.6273 22.0094 55.5454 22.0121L55.5476 22.0117Z" fill="#D2D5D6"/>
<path d="M50.1003 44.1752H66.4064L66.4982 69.7337L58.2805 60.0873L50.1921 69.7337L50.1003 44.1752Z" fill="#3498DB"/>
<path d="M58.2502 44.1752L58.2772 60.0914L58.281 60.0873L66.4986 69.7337L66.4069 44.1752H58.2502Z" fill="#2980B9"/>
<path d="M58.2498 44.1752L58.2661 53.6335L61.0711 54.7259L62.8987 52.7212L66.3681 52.7974L66.4371 52.6302L66.4068 44.1752H58.2498Z" fill="#2D72A0"/>
<path d="M58.2882 44.1752L58.2719 53.6335L55.4668 54.7259L53.6392 52.7212L50.1698 52.7974L50.1008 52.6302L50.1312 44.1752H58.2882Z" fill="#3686BB"/>
<path d="M55.5476 22.0118C55.3816 22.0167 55.2242 22.0887 55.1124 22.2116L53.557 23.9178L50.5267 23.8503C50.2731 23.845 50.0421 23.9963 49.9462 24.231L49.0681 26.3654L46.1978 27.3391C45.9578 27.4206 45.7928 27.6412 45.7822 27.8945L45.6874 30.2006L43.3229 32.0972C43.1254 32.2561 43.0454 32.52 43.1223 32.7615L43.8223 34.9611L42.2495 37.5523C42.1179 37.7692 42.1331 38.0444 42.2882 38.2454L43.6983 40.073L43.1057 43.0457C43.0564 43.2944 43.1648 43.5477 43.379 43.6834L45.3291 44.9187L45.7898 47.9149C45.8285 48.1655 46.0169 48.3665 46.2645 48.4207L48.5194 48.9148L49.9769 51.5727C50.099 51.7949 50.3451 51.9189 50.5961 51.8852L52.8836 51.5784L55.1624 53.577C55.3531 53.7438 55.6265 53.7768 55.851 53.6593L57.8958 52.5885L60.7202 53.6873C60.9565 53.7795 61.2253 53.7169 61.3963 53.5296L62.9516 51.8234L65.9819 51.8909C66.2356 51.8962 66.4665 51.7449 66.5624 51.5102L67.4398 49.3758L70.3101 48.4021C70.5501 48.321 70.7158 48.0999 70.7264 47.8467L70.8212 45.5406L73.1857 43.644C73.3833 43.4851 73.4633 43.2212 73.3863 42.9797L72.6863 40.7801L74.2591 38.1889C74.3907 37.972 74.3755 37.6967 74.2205 37.4958L72.8103 35.6682L73.403 32.6955C73.4523 32.4468 73.3438 32.1935 73.1296 32.0578L71.1795 30.8225L70.7189 27.8263C70.6802 27.5756 70.4917 27.3747 70.2441 27.3205L67.9892 26.8264L66.5317 24.1685C66.4096 23.9463 66.1635 23.8223 65.9125 23.856L63.625 24.1628L61.3462 22.1642C61.2374 22.0686 61.0986 22.0144 60.9538 22.0118C60.8503 22.0099 60.7483 22.0341 60.6569 22.0823L58.6128 23.153L55.7877 22.0542C55.7111 22.0239 55.6295 22.0095 55.5476 22.0118Z" fill="#FFB61C"/>
<path d="M58.2533 26.1132C51.7695 26.1132 46.4961 31.3867 46.4961 37.8704C46.4961 44.3542 51.7695 49.6276 58.2533 49.6276C64.737 49.6276 70.0105 44.3542 70.0105 37.8704C70.0105 31.3867 64.737 26.1132 58.2533 26.1132Z" fill="#F39C12"/>
<path d="M58.2534 27.7493C63.853 27.7493 68.3745 32.2709 68.3745 37.8704C68.3745 43.47 63.853 47.9915 58.2534 47.9915C52.6539 47.9915 48.1323 43.47 48.1323 37.8704C48.1323 32.2709 52.6539 27.7493 58.2534 27.7493Z" fill="#FCD116"/>
<path d="M58.2533 27.7357C52.656 27.7357 48.1189 32.2732 48.1189 37.87C48.1189 43.4673 52.6564 48.0044 58.2533 48.0044C63.8505 48.0044 68.3876 43.4669 68.3876 37.87C68.3876 32.2732 63.8501 27.7357 58.2533 27.7357ZM58.2533 28.3086C63.5343 28.3086 67.8155 32.5894 67.8158 37.8704C67.8158 43.1514 63.5351 47.4326 58.254 47.433C58.2536 47.433 58.2536 47.433 58.2533 47.433C52.9722 47.4326 48.6914 43.1514 48.6914 37.8704C48.6918 32.5894 52.9726 28.3086 58.2533 28.3086Z" fill="#E9C31A"/>
<path d="M83.0684 25.3484H139.976V29.5215H83.0684V25.3484Z" fill="#D2D7D3"/>
<path d="M83.0684 43.9757H139.976V48.1488H83.0684V43.9757Z" fill="#D2D7D3"/>
<path d="M83.0684 62.603H139.976V66.7762H83.0684V62.603Z" fill="#D2D7D3"/>
<path d="M42.0237 81.2303H139.976V85.4034H42.0237V81.2303Z" fill="#D2D7D3"/>
<path d="M42.0237 99.8577H139.976V104.031H42.0237V99.8577Z" fill="#D2D7D3"/>
<path d="M42.0237 118.485H139.976V122.658H42.0237V118.485Z" fill="#D2D7D3"/>
<path d="M121.007 137.112H139.976V141.285H121.007V137.112Z" fill="#D2D7D3"/>
<path d="M45.1314 107.336C44.2635 107.412 43.6921 108.238 43.7656 109.08L45.5409 129.373C45.6145 130.214 46.3205 130.929 47.1884 130.852L138.66 122.85C139.528 122.774 140.1 121.948 140.026 121.106L138.251 100.813C138.177 99.9719 137.471 99.2575 136.603 99.3337L45.1314 107.336ZM45.2482 108.671L136.72 100.668C136.782 100.663 136.898 100.726 136.916 100.93L138.691 121.223C138.709 121.428 138.606 121.509 138.544 121.515L47.072 129.517C47.0102 129.523 46.8938 129.461 46.8759 129.256L45.1007 108.963C45.0825 108.759 45.1864 108.677 45.2482 108.671Z" fill="#BDC0C1"/>
<path d="M52.42 117.883L55.0863 117.65C55.7226 118.311 56.0756 119.037 56.1446 119.827C56.225 120.746 55.955 121.547 55.3343 122.231C54.7185 122.914 53.9189 123.299 52.9361 123.385C51.6594 123.497 50.5329 123.107 49.5569 122.216C48.581 121.325 48.0323 120.183 47.9106 118.791C47.7885 117.395 48.1392 116.194 48.9628 115.187C49.7909 114.179 50.8848 113.616 52.2445 113.497C52.7082 113.457 53.2311 113.506 53.8123 113.645L54.0569 116.442C53.5977 116.274 53.1871 116.206 52.8242 116.237C52.1675 116.295 51.6481 116.546 51.2659 116.992C50.8882 117.437 50.7278 117.985 50.7851 118.637C50.8435 119.303 51.0823 119.814 51.5025 120.171C51.9226 120.528 52.4606 120.677 53.1177 120.62C53.5355 120.584 53.7339 120.443 53.7126 120.2C53.6963 120.017 53.5507 119.937 53.2751 119.961L52.607 120.019L52.42 117.883Z" fill="#BDC0C1"/>
<path d="M64.0919 112.696L64.6254 118.793C64.7195 119.868 64.473 120.755 63.8864 121.454C63.3044 122.153 62.4805 122.549 61.415 122.643C60.3541 122.735 59.5139 122.494 58.8943 121.919C58.2793 121.344 57.9206 120.47 57.8183 119.299L57.2927 113.292L60.0898 113.047L60.615 119.048C60.665 119.622 60.8948 119.891 61.3035 119.855C61.6986 119.821 61.8708 119.516 61.8207 118.942L61.2956 112.942L64.0919 112.696Z" fill="#BDC0C1"/>
<path d="M70.3836 116.867L70.6005 119.347L69.7944 119.417L69.9904 121.656L67.1933 121.901L66.67 115.921C66.5688 114.763 66.8046 113.838 67.3783 113.145C67.9558 112.446 68.8165 112.047 69.96 111.947C71.0623 111.851 71.9033 112.071 72.4823 112.608C73.0613 113.14 73.4036 114.013 73.5094 115.225L74.041 121.302L71.2439 121.546L70.7286 115.656C70.6964 115.289 70.6304 115.038 70.5307 114.903C70.431 114.768 70.2687 114.71 70.0435 114.73C69.607 114.768 69.4175 115.113 69.4747 115.766L69.5771 116.937L70.3836 116.867Z" fill="#BDC0C1"/>
<path d="M78.6877 113.967L79.2891 120.843L76.492 121.087L75.6692 111.683L79.2588 111.369C80.3519 111.274 81.2228 111.47 81.872 111.96C82.5954 112.507 82.9981 113.247 83.0796 114.18C83.1627 115.13 82.8172 115.968 82.043 116.693L83.9946 120.431L81.0598 120.688L79.4373 117.775L79.2258 115.357L79.4461 115.337C80.0342 115.286 80.3204 114.887 80.2617 114.502C80.1999 114.099 79.8632 113.864 79.1837 113.923L78.6877 113.967Z" fill="#BDC0C1"/>
<path d="M88.678 115.266L88.8949 117.746L88.0888 117.817L88.2848 120.056L85.4877 120.3L84.9645 114.321C84.8632 113.163 85.0991 112.238 85.6727 111.544C86.2502 110.846 87.1109 110.447 88.2545 110.347C89.3567 110.25 90.1977 110.471 90.7767 111.007C91.3557 111.54 91.6981 112.413 91.8039 113.625L92.3355 119.701L89.5383 119.946L89.023 114.056C88.9908 113.688 88.9249 113.437 88.8251 113.302C88.7254 113.167 88.5631 113.11 88.3379 113.13C87.9015 113.168 87.7119 113.513 87.7691 114.165L87.8715 115.336L88.678 115.266Z" fill="#BDC0C1"/>
<path d="M94.5934 119.504L94.0595 113.4C93.9659 112.33 94.21 111.445 94.7924 110.747C95.379 110.047 96.2052 109.651 97.2711 109.558C98.332 109.465 99.1699 109.707 99.7849 110.282C100.404 110.857 100.765 111.731 100.868 112.902L101.393 118.909L98.5962 119.154L98.0707 113.146C98.0207 112.572 97.7909 112.303 97.3821 112.339C96.9871 112.373 96.8149 112.678 96.865 113.252L97.3905 119.259L94.5934 119.504Z" fill="#BDC0C1"/>
<path d="M107.37 111.631L107.957 118.335L105.16 118.579L104.573 111.876L102.431 112.063L102.194 109.362L109.27 108.743L109.506 111.444L107.37 111.631Z" fill="#BDC0C1"/>
<path d="M116.408 111.806L116.591 113.9L114.766 114.06C114.518 114.081 114.344 114.134 114.245 114.216C114.15 114.299 114.11 114.427 114.126 114.602C114.143 114.799 114.207 114.925 114.319 114.98C114.429 115.031 114.648 115.042 114.974 115.013L116.855 114.849L117.09 117.536L114.892 117.728C113.859 117.818 113.047 117.642 112.458 117.198C111.868 116.75 111.532 116.059 111.451 115.127L111.128 111.441C111.049 110.541 111.246 109.82 111.717 109.279C112.192 108.738 112.899 108.426 113.836 108.344L116.268 108.131L116.504 110.832L114.719 110.989C114.237 111.031 114.01 111.208 114.037 111.52C114.053 111.704 114.121 111.827 114.243 111.891C114.364 111.95 114.571 111.966 114.865 111.941L116.408 111.806Z" fill="#BDC0C1"/>
<path d="M123.971 111.144L124.154 113.238L122.328 113.398C122.08 113.42 121.907 113.472 121.807 113.555C121.712 113.637 121.673 113.766 121.688 113.94C121.706 114.138 121.77 114.264 121.881 114.319C121.992 114.369 122.211 114.38 122.537 114.352L124.417 114.187L124.653 116.874L122.455 117.066C121.422 117.156 120.61 116.98 120.02 116.536C119.43 116.088 119.095 115.398 119.013 114.465L118.691 110.78C118.612 109.879 118.808 109.159 119.279 108.618C119.754 108.076 120.461 107.764 121.398 107.683L123.83 107.47L124.066 110.171L122.282 110.327C121.799 110.369 121.572 110.546 121.599 110.858C121.615 111.042 121.684 111.166 121.805 111.229C121.926 111.288 122.133 111.305 122.427 111.279L123.971 111.144Z" fill="#BDC0C1"/>
<path d="M129.231 109.719L129.818 116.422L127.021 116.667L126.198 107.263L129.843 106.944C131.441 106.804 132.724 107.057 133.693 107.704C134.843 108.478 135.484 109.609 135.614 111.097C135.739 112.521 135.381 113.723 134.541 114.704C133.701 115.684 132.558 116.238 131.111 116.364C130.941 116.379 130.662 116.394 130.275 116.41L130.033 113.647L130.481 113.608C132.111 113.466 132.867 112.712 132.748 111.348C132.635 110.066 131.778 109.496 130.175 109.636L129.231 109.719Z" fill="#BDC0C1"/>
<path d="M44.6503 106.981C43.7824 107.057 43.2114 107.884 43.2849 108.725L45.0602 129.018C45.1337 129.859 45.8398 130.574 46.7077 130.498L138.179 122.495C139.047 122.419 139.618 121.593 139.545 120.751L137.769 100.459C137.696 99.6177 136.99 98.903 136.122 98.9788L44.6503 106.981ZM44.7675 108.317L136.239 100.314C136.301 100.309 136.417 100.371 136.435 100.575L138.21 120.868C138.228 121.072 138.125 121.154 138.063 121.159L46.5913 129.162C46.5295 129.167 46.4138 129.105 46.396 128.9L44.6204 108.608C44.6025 108.404 44.7053 108.322 44.7675 108.317Z" fill="#EA6153"/>
<path d="M52.0673 117.608L54.7336 117.375C55.3698 118.037 55.7228 118.762 55.7918 119.552C55.8722 120.471 55.6022 121.272 54.9815 121.956C54.3658 122.639 53.5661 123.024 52.5833 123.11C51.3066 123.222 50.1801 122.832 49.2042 121.941C48.2282 121.05 47.6795 119.908 47.5578 118.517C47.4357 117.12 47.7865 115.919 48.61 114.912C49.4381 113.904 50.532 113.341 51.8917 113.222C52.3554 113.182 52.8783 113.231 53.4596 113.37L53.7041 116.167C53.2449 115.999 52.8343 115.931 52.4714 115.962C51.8147 116.02 51.2953 116.271 50.9131 116.717C50.5354 117.161 50.375 117.71 50.4323 118.362C50.4907 119.028 50.7296 119.54 51.1497 119.896C51.5698 120.253 52.1078 120.403 52.7649 120.345C53.1828 120.309 53.3811 120.169 53.3598 119.925C53.3435 119.741 53.1979 119.662 52.9223 119.686L52.2542 119.744L52.0673 117.608Z" fill="#EA6153"/>
<path d="M63.7392 112.421L64.2726 118.518C64.3667 119.593 64.1202 120.48 63.5336 121.179C62.9516 121.878 62.1277 122.274 61.0622 122.368C60.0013 122.461 59.1611 122.219 58.5415 121.644C57.9265 121.069 57.5678 120.195 57.4655 119.024L56.9399 113.017L59.7371 112.772L60.2622 118.773C60.3122 119.347 60.542 119.616 60.9508 119.58C61.3459 119.546 61.518 119.241 61.468 118.667L60.9428 112.667L63.7392 112.421Z" fill="#EA6153"/>
<path d="M70.0306 116.592L70.2474 119.072L69.4413 119.142L69.6374 121.381L66.8402 121.626L66.317 115.646C66.2158 114.489 66.4516 113.563 67.0253 112.87C67.6027 112.171 68.4635 111.772 69.607 111.672C70.7093 111.576 71.5503 111.796 72.1292 112.333C72.7082 112.865 73.0506 113.738 73.1564 114.95L73.688 121.027L70.8909 121.271L70.3756 115.381C70.3434 115.014 70.2774 114.763 70.1777 114.628C70.0779 114.493 69.9157 114.435 69.6904 114.455C69.254 114.493 69.0644 114.839 69.1217 115.491L69.2241 116.662L70.0306 116.592Z" fill="#EA6153"/>
<path d="M78.3347 113.692L78.9361 120.568L76.139 120.812L75.3162 111.408L78.9057 111.094C79.9989 110.999 80.8698 111.196 81.5189 111.685C82.2424 112.232 82.6451 112.972 82.7266 113.905C82.8096 114.855 82.4642 115.693 81.69 116.418L83.6415 120.156L80.7068 120.413L79.0843 117.5L78.8727 115.082L79.093 115.062C79.6811 115.011 79.953 114.732 79.9086 114.227C79.8696 113.782 79.5101 113.589 78.8307 113.648L78.3347 113.692Z" fill="#EA6153"/>
<path d="M88.325 114.991L88.5419 117.471L87.7358 117.542L87.9318 119.781L85.1347 120.025L84.6114 114.045C84.5102 112.888 84.746 111.963 85.3197 111.269C85.8972 110.571 86.7579 110.171 87.9015 110.071C89.0037 109.975 89.8447 110.195 90.4237 110.732C91.0027 111.265 91.345 112.137 91.4508 113.35L91.9824 119.426L89.1853 119.671L88.67 113.78C88.6378 113.413 88.5718 113.162 88.4721 113.027C88.3724 112.892 88.2101 112.835 87.9849 112.854C87.5485 112.893 87.3589 113.238 87.4161 113.89L87.5185 115.061L88.325 114.991Z" fill="#EA6153"/>
<path d="M94.2404 119.229L93.7065 113.125C93.6128 112.055 93.857 111.171 94.4394 110.472C95.026 109.773 95.8522 109.376 96.918 109.283C97.9789 109.19 98.8169 109.432 99.4319 110.007C100.051 110.582 100.412 111.456 100.515 112.627L101.04 118.634L98.2432 118.879L97.7177 112.871C97.6676 112.297 97.4379 112.028 97.0291 112.064C96.634 112.098 96.4619 112.403 96.5119 112.977L97.0375 118.984L94.2404 119.229Z" fill="#EA6153"/>
<path d="M107.018 111.356L107.604 118.06L104.807 118.304L104.22 111.601L102.078 111.788L101.842 109.087L108.917 108.468L109.153 111.169L107.018 111.356Z" fill="#EA6153"/>
<path d="M116.055 111.531L116.239 113.625L114.413 113.785C114.165 113.806 113.991 113.859 113.892 113.941C113.797 114.024 113.758 114.152 113.773 114.327C113.79 114.524 113.854 114.65 113.966 114.705C114.077 114.756 114.295 114.767 114.621 114.738L116.502 114.574L116.737 117.261L114.539 117.453C113.506 117.543 112.694 117.367 112.105 116.923C111.515 116.475 111.18 115.785 111.098 114.852L110.775 111.166C110.697 110.266 110.893 109.545 111.364 109.004C111.839 108.463 112.546 108.151 113.483 108.069L115.915 107.857L116.151 110.557L114.367 110.714C113.884 110.756 113.657 110.933 113.684 111.245C113.7 111.429 113.769 111.552 113.89 111.616C114.011 111.675 114.218 111.691 114.512 111.666L116.055 111.531Z" fill="#EA6153"/>
<path d="M123.618 110.869L123.801 112.964L121.975 113.123C121.727 113.145 121.554 113.197 121.454 113.28C121.359 113.362 121.32 113.491 121.335 113.665C121.353 113.863 121.417 113.989 121.528 114.044C121.639 114.094 121.858 114.105 122.184 114.077L124.064 113.912L124.3 116.599L122.102 116.791C121.069 116.882 120.257 116.705 119.667 116.262C119.077 115.813 118.742 115.123 118.66 114.191L118.338 110.505C118.259 109.605 118.455 108.884 118.926 108.343C119.401 107.801 120.108 107.49 121.045 107.408L123.477 107.195L123.713 109.896L121.929 110.052C121.446 110.094 121.219 110.271 121.246 110.584C121.262 110.767 121.331 110.891 121.452 110.954C121.573 111.013 121.78 111.03 122.074 111.004L123.618 110.869Z" fill="#EA6153"/>
<path d="M128.878 109.444L129.465 116.147L126.668 116.392L125.845 106.988L129.49 106.669C131.088 106.529 132.371 106.782 133.34 107.429C134.49 108.202 135.131 109.333 135.261 110.822C135.386 112.245 135.028 113.448 134.188 114.428C133.348 115.409 132.205 115.962 130.758 116.089C130.588 116.104 130.309 116.119 129.922 116.135L129.68 113.372L130.128 113.333C131.758 113.19 132.514 112.437 132.395 111.073C132.282 109.791 131.425 109.221 129.822 109.361L128.878 109.444Z" fill="#EA6153"/>
</svg>
