<svg width="155" height="155" viewBox="0 0 155 155" fill="none" xmlns="http://www.w3.org/2000/svg">
<path d="M77.5 0C34.698 0 0 34.698 0 77.5C0 120.302 34.698 155 77.5 155C120.302 155 155 120.302 155 77.5C155 34.698 120.302 0 77.5 0ZM77.5 142.083C41.8312 142.083 12.9165 113.168 12.9165 77.4993C12.9165 41.8304 41.8312 12.9158 77.5 12.9158C106.538 12.9158 131.097 32.0818 139.225 58.4519C133.469 59.7548 129.167 64.8907 129.167 71.0406V83.9572C129.167 90.1071 133.469 95.243 139.225 96.546C131.097 122.917 106.538 142.083 77.5 142.083Z" fill="#959CB3"/>
</svg>
