<svg width="254" height="60" viewBox="0 0 254 60" fill="none" xmlns="http://www.w3.org/2000/svg">
<g clip-path="url(#clip0_180_66)">
<rect width="254" height="60" fill="white"/>
<path fill-rule="evenodd" clip-rule="evenodd" d="M86.2781 16.307H102.948C109.709 16.307 115.242 20.6419 115.242 27.4821V49.7418H108.111V27.8576C107.91 25.2591 105.597 23.4213 103.291 23.2815H93.4737V49.7418H86.2781V16.307ZM73 16.307H80.1306V49.7418H73V16.307ZM121.977 16.307H136.336C143.63 16.307 150.694 22.3509 150.694 33.023C150.694 43.6951 143.63 49.7418 136.336 49.7418H121.977V16.307ZM129.108 23.5912L136.584 23.6008C141.775 24.0024 143.515 29.1061 143.418 33.7028C143.159 37.817 141.345 41.8449 136.899 42.4233C134.341 42.622 131.674 42.4575 129.108 42.4575V23.5912V23.5912ZM181.481 49.6828C179.084 50.4585 175.893 50.8765 171.675 50.8793C163.817 50.8848 154.552 47.7847 154.552 32.9641C154.552 23.6214 160.077 16 169.484 16C179.512 16 183.479 20.6899 183.479 32.3323V36.2615H162.306C162.327 40.8006 165.807 44.4955 173.557 44.4955C176.953 44.4955 179.586 43.7856 181.481 42.6056V49.6828V49.6828ZM176.453 30.2847V30.2436C176.453 25.8923 174.747 22.3441 169.297 22.3441C163.849 22.3441 162.14 25.8923 162.14 30.2436L162.143 30.2847H176.453ZM225.563 16.307H218.432V49.7418H225.563V16.307ZM253.999 16.307H229.57V23.0814H238.218V49.7418H245.349V23.0828H254V16.307H253.999ZM200.216 22.0631C203.787 21.7191 207.349 22.2892 210.935 23.6926V17.339C207.7 16.4043 204.408 16.1384 201.065 16.026C192.691 15.7451 188.026 19.4221 187.891 26.9106C187.796 32.0952 190.586 36.2341 198.629 36.7316C203.521 37.0372 205.913 38.4721 205.772 40.913C205.631 43.3401 202.841 44.2584 199.742 44.5078C195.085 44.8792 191.326 43.7582 187.98 42.326V49.6815C191.521 50.56 195.344 51.03 199.909 50.9985C208.086 50.9423 212.867 47.8669 213.039 40.6211C213.177 34.8417 208.686 30.7137 202.632 30.4862C197.131 30.2806 195.06 29.0883 195.076 26.7434C195.093 24.223 197.366 22.3399 200.216 22.0631V22.0631Z" fill="#E2E2E2"/>
<path fill-rule="evenodd" clip-rule="evenodd" d="M29 8.22573C30.0602 8.2235 31.0763 7.78953 31.826 7.01883C32.5757 6.24814 32.9978 5.2035 33 4.11357C32.9982 3.0234 32.5762 1.9784 31.8265 1.2074C31.0768 0.436398 30.0604 0.00223848 29 0C27.9396 0.00223848 26.9232 0.436398 26.1735 1.2074C25.4238 1.9784 25.0018 3.0234 25 4.11357C25.0015 5.20373 25.4233 6.2488 26.1732 7.01966C26.923 7.79052 27.9396 8.22424 29 8.22573V8.22573ZM31.5367 18.1914V47.208C31.5367 50.9264 26.4619 50.9349 26.4619 47.208V18.1914C26.4619 14.473 31.5367 14.4645 31.5367 18.1914Z" fill="#E2E2E2"/>
<path fill-rule="evenodd" clip-rule="evenodd" d="M17.0394 9.86782C13.394 11.9877 10.4008 15.0803 8.31788 18.7181C6.24322 22.3462 5.07613 26.5057 5.07613 30.7745C5.07613 44.0554 15.8243 54.8872 29 54.8872C42.1757 54.8872 52.9239 44.0554 52.9239 30.7745C52.9239 26.5071 51.7582 22.3462 49.6821 18.7181C47.6006 15.0803 44.6074 11.9863 40.9619 9.86782C37.83 8.04685 40.3592 3.60649 43.5007 5.43162C47.9329 8.0081 51.5659 11.758 54.0855 16.161C56.5913 20.5432 58 25.5855 58 30.7745C58 46.8713 44.9726 60 29 60C13.0274 60 0 46.8713 0 30.7745C0 25.5855 1.40874 20.5418 3.91591 16.161C6.43407 11.758 10.0671 8.0081 14.4993 5.43162C17.6353 3.60926 20.1768 8.0427 17.0394 9.86782V9.86782Z" fill="#E2E2E2"/>
</g>
<defs>
<clipPath id="clip0_180_66">
<rect width="254" height="60" fill="white"/>
</clipPath>
</defs>
</svg>
