<svg class="map-svg" viewBox="0 0 182 182" fill="none" xmlns="http://www.w3.org/2000/svg">
<g clip-path="url(#clip0_65_48)">
<path d="M64.215 181.815H21.4584C17.2976 181.815 13.9246 178.442 13.9246 174.281V69.1602C13.9246 64.9994 17.2976 61.6263 21.4584 61.6263H48.0073C51.2634 61.6263 54.1513 63.7183 55.1658 66.8126C75.4489 128.669 71.7488 64.3108 71.7488 174.281C71.7488 178.442 68.3757 181.815 64.215 181.815Z" fill="#D1D3D4"/>
<path d="M56.6809 181.815V105.855C56.6809 102.377 59.0601 99.3523 62.4392 98.5326C70.857 96.4954 69.765 102.697 90.9997 138.46C111.816 103.4 99.3618 100.573 165.942 169.028C168.381 171.536 168.812 175.449 166.803 178.475C163.675 183.184 168.054 181.815 56.6809 181.815Z" fill="#48AEE2"/>
<path d="M165.942 169.029C99.5513 100.768 111.972 103.14 90.9998 138.46V181.815C165.978 181.815 163.754 183.064 166.802 178.475C168.812 175.45 168.381 171.536 165.942 169.029Z" fill="#39A3DB"/>
<path d="M155.141 179.534C100.244 123.091 99.7473 124.977 102.397 118.704C104.99 112.565 106.187 114.101 160.541 114.101C164.702 114.101 168.075 117.474 168.075 121.635V174.281C168.076 181.048 159.828 184.354 155.141 179.534Z" fill="#F59D00"/>
<path d="M168.075 129.169C104.197 129.169 106.997 129.981 104.01 126.967C95.693 118.576 113.365 107.902 126.841 66.792C127.853 63.7047 130.743 61.6266 133.993 61.6266H160.542C164.702 61.6266 168.075 64.9997 168.075 69.1605V129.169Z" fill="#57BDB7"/>
<path d="M90.9997 0C56.9848 0 27.9515 32.2023 40.849 71.5077C49.0689 96.5786 71.879 136.64 84.6127 156.996C85.9897 159.198 88.4037 160.535 91.0004 160.535C93.5971 160.535 96.0108 159.197 97.3882 156.996C106.301 142.748 132.045 99.2702 141.152 71.5087V71.5091C153.999 32.3467 125.13 0 90.9997 0ZM90.9994 80.5927C76.1724 80.5927 64.1099 68.5281 64.1099 53.6983C64.1099 38.8713 76.1731 26.8081 90.9994 26.8081C105.826 26.8081 117.89 38.8706 117.89 53.6983C117.89 68.5278 105.827 80.5927 90.9994 80.5927Z" fill="#FF5E5B"/>
<path d="M90.9998 0V26.8081C105.827 26.8084 117.889 38.8713 117.889 53.6983C117.889 68.5278 105.827 80.5924 90.9998 80.5927V160.535C93.5965 160.535 96.0097 159.197 97.3868 156.996C106.299 142.748 132.044 99.2702 141.15 71.5087V71.5091C153.999 32.3467 125.13 0 90.9998 0Z" fill="#FF423D"/>
</g>
<defs>
<clipPath id="clip0_65_48">
<rect width="182" height="182" fill="white"/>
</clipPath>
</defs>
</svg>
