<svg width="159" height="60" viewBox="0 0 159 60" fill="none" xmlns="http://www.w3.org/2000/svg">
<g clip-path="url(#clip0_87_1701)">
<path d="M158.9 14.2845C156.711 0.174445 118.942 -4.22886 74.5371 4.44904C55.8888 8.09536 39.0503 13.4735 25.9373 19.524C27.9516 19.5735 29.4455 20.0919 30.3532 21.1082C31.0628 21.9056 31.4213 23.0002 31.4213 24.3638V25.7635H27.0671V24.5276C27.0671 23.4979 26.517 22.8598 25.5428 22.8598C24.724 22.8598 24.2197 23.2747 24.0569 24.092C24.0023 24.4151 24.0083 24.7474 24.0745 25.0677C24.5404 27.2055 31.0059 28.5331 31.7091 32.4783C31.8014 32.9859 31.9265 34.0724 31.7292 35.6268C31.3259 38.8087 28.8352 40.0364 25.6646 40.0364C21.2391 40.0364 19.4413 37.6836 19.4413 34.4396L19.4445 32.9049H24.1122L24.1146 34.8167C24.1146 35.8915 24.8106 36.4846 25.7585 36.4846C26.6566 36.4846 27.181 36.0787 27.3622 35.2488C27.4464 34.8671 27.4833 34.3046 27.3301 33.8743C26.4665 31.4422 20.4292 30.3063 19.6859 26.3738C19.5199 25.4899 19.5063 24.7374 19.6442 23.786C19.7149 23.3143 19.8451 22.8564 20.0307 22.4259C5.48553 30.0615 -3.02314 38.4631 -1.89892 45.717C0.2926 59.8288 38.0608 64.2276 82.4645 55.5497C101.984 51.736 119.532 46.0266 132.887 39.6287C132.694 39.6395 132.506 39.6629 132.306 39.6629C129.267 39.6629 126.553 38.3847 126.272 34.8977C126.222 34.2632 126.213 33.9976 126.211 33.6358L126.213 25.6195C126.213 25.2738 126.249 24.6672 126.284 24.3539C126.644 20.9839 129.017 19.5942 132.307 19.5942C134.853 19.5942 137.975 20.4142 138.318 24.3566C138.364 24.8517 138.359 25.38 138.358 25.5538V26.3108H133.961V25.1811C133.961 25.1568 133.954 24.7347 133.906 24.4709C133.834 24.0686 133.528 23.1361 132.276 23.1361C131.039 23.1361 130.718 24.0704 130.638 24.4718C130.592 24.6924 130.57 25.0092 130.57 25.3602V34.0723C130.566 34.3748 130.58 34.6115 130.607 34.7852C130.629 34.9221 130.851 36.1228 132.291 36.1228C133.721 36.1228 133.942 34.9221 133.962 34.7852C134 34.5494 134.005 34.2686 134.003 34.0723V31.3729H132.273V28.4656H138.392V33.6376C138.39 33.9895 138.385 34.2497 138.332 34.8977C138.259 35.8123 138.002 36.5863 137.6 37.2479C151.763 29.6987 160.01 21.4331 158.9 14.2845ZM43.7605 39.2921L41.5329 22.3017H41.4527L39.1682 39.2921H34.4732L37.631 20.1045H45.2913L48.4298 39.2921H43.7605ZM66.3428 39.2921L66.2394 22.6302H66.164L63.4015 39.2921H58.9953L56.2464 22.6302H56.1679L56.0676 39.2921H51.7014L52.0799 20.1045H59.1027L61.1475 34.3577H61.2477L63.2981 20.1045H70.3177L70.6946 39.2921H66.3428ZM86.9036 35.5737C86.4337 39.2903 83.1901 39.9401 80.8976 39.9401C77.0911 39.9401 74.7368 38.1138 74.7368 34.3973L74.7392 32.8815H79.3508L79.354 34.7699C79.354 35.7952 79.9979 36.4225 80.9922 36.4225C81.8791 36.4225 82.3987 36.0229 82.5791 35.202C82.6625 34.8194 82.697 34.2614 82.5495 33.8401C81.6995 31.454 75.7095 30.2847 74.9814 26.4134C74.8146 25.5358 74.8026 24.7905 74.9397 23.849C75.4465 20.3395 78.4471 19.6104 80.8623 19.6104C83.0226 19.6104 84.595 20.1396 85.538 21.1982C86.2413 21.9885 86.5973 23.0731 86.5973 24.4223V25.8067H82.2848V24.5853C82.2848 23.5393 81.7067 22.9345 80.7773 22.9345C79.953 22.9345 79.4542 23.3458 79.2906 24.155C79.2376 24.4748 79.2447 24.8034 79.3115 25.1199C79.7734 27.2478 86.1819 28.5484 86.8836 32.4567C86.9742 32.9553 87.0985 34.0255 86.9036 35.5737ZM102.875 33.8302C102.882 34.1903 102.85 34.9094 102.833 35.094C102.57 38.2551 100.555 39.8618 96.8613 39.8618C93.1526 39.8618 91.1367 38.2551 90.8753 35.094C90.8457 34.6748 90.8315 34.2543 90.8328 33.8338V20.1H95.2447V34.2668C95.2399 34.5836 95.2543 34.8176 95.2824 34.9806C95.3369 35.2956 95.616 36.3181 96.8613 36.3181C98.1026 36.3181 98.3816 35.2947 98.4402 34.9842C98.465 34.8167 98.4802 34.571 98.4802 34.2659V20.1H102.875V33.8302ZM121.884 39.0967H115.745L111.624 23.8985H111.555L111.783 39.0967H107.505V20.1045H113.901L117.71 34.7042H117.799L117.574 20.1045H121.884V39.0967Z" fill="#E2E2E2"/>
</g>
<defs>
<clipPath id="clip0_87_1701">
<rect width="161" height="60" fill="white" transform="translate(-2)"/>
</clipPath>
</defs>
</svg>
