<svg class="washing-machine" viewBox="0 0 332 350" fill="none" xmlns="http://www.w3.org/2000/svg">
<path d="M80.055 316.129H53.2808V350H80.055V316.129Z" fill="#2F423F"/>
<path d="M278.184 316.129H251.41V350H278.184V316.129Z" fill="#2F423F"/>
<path d="M310.313 297.5C310.313 320.081 292.642 338.71 271.223 338.71H60.2419C38.8226 338.71 21.1516 320.081 21.1516 297.5V41.2097C21.1516 18.629 38.8226 0 60.2419 0H271.758C293.177 0 310.848 18.629 310.848 41.2097V297.5H310.313V297.5Z" fill="#F4EFD9"/>
<path d="M164.5 320C229.393 320 282 267.393 282 202.5C282 137.607 229.393 85 164.5 85C99.6065 85 47 137.607 47 202.5C47 267.393 99.6065 320 164.5 320Z" fill="#FFC114"/>
<path d="M166 85C231.14 85 284 137.636 284 202.5C284 267.364 231.14 320 166 320" fill="#FCA12A"/>
<path d="M165 298C217.467 298 260 255.467 260 203C260 150.533 217.467 108 165 108C112.533 108 70 150.533 70 203C70 255.467 112.533 298 165 298Z" fill="#3AC2F2"/>
<path d="M232.217 136C269.261 173.044 269.261 233.173 232.217 270.217C195.173 307.261 135.044 307.261 98 270.217" fill="#009CC6"/>
<path d="M164.5 256C194.047 256 218 232.047 218 202.5C218 172.953 194.047 149 164.5 149C134.953 149 111 172.953 111 202.5C111 232.047 134.953 256 164.5 256Z" fill="#10BBE8"/>
<path d="M127 164.634C147.846 143.789 181.52 143.789 202.366 164.634C223.211 185.48 223.211 219.154 202.366 240" fill="#009CC6"/>
<path d="M70.4161 71.129C82.8372 71.129 92.9064 60.5138 92.9064 47.4193C92.9064 34.3249 82.8372 23.7097 70.4161 23.7097C57.995 23.7097 47.9258 34.3249 47.9258 47.4193C47.9258 60.5138 57.995 71.129 70.4161 71.129Z" fill="#37CC85"/>
<path d="M85.9451 31.0484C94.5129 40.0806 94.5129 55.3226 85.9451 64.3548C77.3774 73.3871 62.9193 73.3871 54.3516 64.3548" fill="#0AA06E"/>
<path d="M246.055 51.371C246.055 54.1935 243.913 56.4516 241.235 56.4516H117.003C114.326 56.4516 112.184 54.1935 112.184 51.371V50.2419C112.184 47.4193 114.326 45.1613 117.003 45.1613H241.235C243.913 45.1613 246.055 47.4193 246.055 50.2419V51.371V51.371Z" fill="#DDCE92"/>
<path d="M283.539 35C283.539 37.2581 281.397 39.5161 279.255 39.5161H255.694C253.552 39.5161 251.41 37.2581 251.41 35V32.7419C251.41 30.4839 253.552 28.2258 255.694 28.2258H279.255C281.397 28.2258 283.539 30.4839 283.539 32.7419V35V35Z" fill="#E5D9AA"/>
<path d="M283.539 57.5806C283.539 59.8387 281.397 62.0968 279.255 62.0968H255.694C253.552 62.0968 251.41 59.8387 251.41 57.5806V55.3226C251.41 53.0645 253.552 50.8065 255.694 50.8065H279.255C281.397 50.8065 283.539 53.0645 283.539 55.3226V57.5806V57.5806Z" fill="#E5D9AA"/>
<path d="M283.539 80.1613C283.539 82.4193 281.397 84.6774 279.255 84.6774H255.694C253.552 84.6774 251.41 82.4193 251.41 80.1613V77.9032C251.41 75.6452 253.552 73.3871 255.694 73.3871H279.255C281.397 73.3871 283.539 75.6452 283.539 77.9032V80.1613V80.1613Z" fill="#E5D9AA"/>
</svg>
