<svg width="104" height="140" viewBox="0 0 104 1" fill="none" xmlns="http://www.w3.org/2000/svg">
<path fill-rule="evenodd" clip-rule="evenodd" d="M41.5762 11.3233C47.8287 13.7102 52.8234 17.5817 58.6802 20.4527C60.2975 21.227 61.9505 21.9368 63.6754 22.485L63.7111 22.5172L63.783 22.5494C68.023 24.0335 72.5869 24.8078 77.1864 24.6144H77.2583H77.3302C85.0195 24.5499 92.2066 21.6139 98.3153 17.5817L103.849 13.9359C108.951 95.0056 -16.9954 67.4231 1.94164 14.8719C2.51626 14.2911 3.16328 13.7747 3.7741 13.2588L3.95358 13.0976L4.16924 12.9682C15.0575 6.16165 29.8977 6.38736 41.5762 11.3556V11.3233ZM36.7253 31.8083C37.5156 31.8083 38.1626 32.3887 38.1626 33.0985C38.1626 33.8083 37.5156 34.3891 36.7253 34.3891C35.9345 34.3891 35.288 33.8083 35.288 33.0985C35.288 32.3887 35.9345 31.8083 36.7253 31.8083ZM27.2025 30.3564C27.9933 30.3564 28.6403 30.9372 28.6403 31.6471C28.6403 32.3564 27.9933 32.9372 27.2025 32.9372C26.4122 32.9372 25.7652 32.3564 25.7652 31.6471C25.7652 30.9372 26.4122 30.3564 27.2025 30.3564ZM20.8786 33.3246C21.9565 33.3246 22.8187 34.0985 22.8187 35.0662C22.8187 36.0344 21.9565 36.8083 20.8786 36.8083C19.8003 36.8083 18.9381 36.0344 18.9381 35.0662C18.9381 34.0985 19.8003 33.3246 20.8786 33.3246ZM30.329 37.6793C31.4069 37.6793 32.2696 38.4536 32.2696 39.4213C32.2696 40.3895 31.4069 41.1634 30.329 41.1634C29.2512 41.1634 28.3885 40.3895 28.3885 39.4213C28.3885 38.4536 29.2512 37.6793 30.329 37.6793ZM20.7705 20.3882C23.2862 20.3882 25.2982 22.1948 25.2982 24.4527C25.2982 26.7111 23.2862 28.5176 20.7705 28.5176C18.2554 28.5176 16.2429 26.7111 16.2429 24.4527C16.2429 22.1948 18.2554 20.3882 20.7705 20.3882ZM64.5738 0C65.3641 0 66.0111 0.580381 66.0111 1.29019C66.0111 1.99999 65.3641 2.58083 64.5738 2.58083C63.783 2.58083 63.1365 1.99999 63.1365 1.29019C63.1365 0.580381 63.783 0 64.5738 0ZM62.9565 14.3878C64.3581 14.3878 65.4717 15.3878 65.4717 16.6462C65.4717 17.9041 64.3581 18.9041 62.9565 18.9041C61.5554 18.9041 60.4413 17.9041 60.4413 16.6462C60.4413 15.3878 61.5554 14.3878 62.9565 14.3878ZM72.5 12.5C72.515 12.4845 72.5299 12.469 72.515 12.4845C72.5 12.5 72.485 12.5155 72.5 12.5Z" fill="#006991"/>
</svg>
